<svg id="レイヤー_1" data-name="レイヤー 1" xmlns="http://www.w3.org/2000/svg" viewBox="0 0 1611.18 1984.25"><defs><style>.cls-1,.cls-2{fill:#ff4655;}.cls-1{stroke:#eb6649;stroke-linecap:round;stroke-miterlimit:1;stroke-width:56.69px;}</style></defs><path class="cls-1" d="M321.13,874.11"/><path class="cls-2" d="M1604.36,0H6.83A6.83,6.83,0,0,0,0,6.83v1970.6a6.82,6.82,0,0,0,6.83,6.82H1604.36a6.82,6.82,0,0,0,6.82-6.82V6.83A6.82,6.82,0,0,0,1604.36,0Zm-71,1897.25a4.53,4.53,0,0,1-4.53,4.54H82.4a4.54,4.54,0,0,1-4.54-4.54V87a4.54,4.54,0,0,1,4.54-4.54H1528.79a4.53,4.53,0,0,1,4.53,4.54Z"/><path class="cls-2" d="M981.5,549.9,644.23,744.62A14.55,14.55,0,0,1,622.41,732V342.57A14.55,14.55,0,0,1,644.23,330L981.5,524.69A14.56,14.56,0,0,1,981.5,549.9Z"/><path class="cls-2" d="M430.35,994c116.28-32.17,238.49-34.07,384.21,1.58,107.91,26.4,264.82,25,366.27-.17"/><path class="cls-2" d="M997.64,1053.66c-68.15,0-136.4-6.83-192.27-20.5-134.5-32.91-250.39-33.5-364.71-1.87A38.66,38.66,0,0,1,420,956.77c127.57-35.3,255.85-34.89,403.71,1.28,99.66,24.39,249.17,24.33,347.77-.13a38.66,38.66,0,1,1,18.62,75C1134.53,1046.76,1066.14,1053.66,997.64,1053.66Z"/><rect class="cls-2" x="571.35" y="1253.65" width="104.61" height="386.61" rx="18.19"/><rect class="cls-2" x="753.29" y="1294.59" width="104.61" height="304.74" rx="18.17"/><rect class="cls-2" x="935.22" y="1253.65" width="104.61" height="386.61" rx="18.19"/></svg>